<svg width="120" height="115" viewBox="0 0 120 115" fill="none" xmlns="http://www.w3.org/2000/svg">
<path d="M120 57.5C120 89.2564 93.1371 115 60 115C26.8629 115 0 89.2564 0 57.5C0 25.7436 26.8629 0 60 0C93.1371 0 120 25.7436 120 57.5Z" fill="black"/>
<path d="M33.5114 49.5568C33.3977 48.3068 32.892 47.3352 31.9943 46.642C31.108 45.9375 29.8409 45.5852 28.1932 45.5852C27.1023 45.5852 26.1932 45.7273 25.4659 46.0114C24.7386 46.2955 24.1932 46.6875 23.8295 47.1875C23.4659 47.6761 23.2784 48.2386 23.267 48.875C23.2443 49.3977 23.3466 49.858 23.5739 50.2557C23.8125 50.6534 24.1534 51.0057 24.5966 51.3125C25.0511 51.608 25.5966 51.8693 26.233 52.0966C26.8693 52.3239 27.5852 52.5227 28.3807 52.6932L31.3807 53.375C33.108 53.75 34.6307 54.25 35.9489 54.875C37.2784 55.5 38.392 56.2443 39.2898 57.108C40.1989 57.9716 40.8864 58.9659 41.3523 60.0909C41.8182 61.2159 42.0568 62.4773 42.0682 63.875C42.0568 66.0795 41.5 67.9716 40.3977 69.5511C39.2955 71.1307 37.7102 72.3409 35.642 73.1818C33.5852 74.0227 31.1023 74.4432 28.1932 74.4432C25.2727 74.4432 22.7273 74.0057 20.5568 73.1307C18.3864 72.2557 16.6989 70.9261 15.4943 69.142C14.2898 67.358 13.6705 65.1023 13.6364 62.375H21.7159C21.7841 63.5 22.0852 64.4375 22.6193 65.1875C23.1534 65.9375 23.8864 66.5057 24.8182 66.892C25.7614 67.2784 26.8523 67.4716 28.0909 67.4716C29.2273 67.4716 30.1932 67.3182 30.9886 67.0114C31.7955 66.7045 32.4148 66.2784 32.8466 65.733C33.2784 65.1875 33.5 64.5625 33.5114 63.858C33.5 63.1989 33.2955 62.6364 32.8977 62.1705C32.5 61.6932 31.8864 61.2841 31.0568 60.9432C30.2386 60.5909 29.1932 60.267 27.9205 59.9716L24.2727 59.1193C21.25 58.4261 18.8693 57.3068 17.1307 55.7614C15.392 54.2045 14.5284 52.1023 14.5398 49.4545C14.5284 47.2955 15.108 45.4034 16.2784 43.7784C17.4489 42.1534 19.0682 40.8864 21.1364 39.9773C23.2045 39.0682 25.5625 38.6136 28.2102 38.6136C30.9148 38.6136 33.2614 39.0739 35.25 39.9943C37.25 40.9034 38.8011 42.1818 39.9034 43.8295C41.0057 45.4773 41.5682 47.3864 41.5909 49.5568H33.5114Z" fill="white"/>
<path d="M57.3068 74.5284C54.8523 74.5284 52.733 74.0909 50.9489 73.2159C49.1761 72.3409 47.8125 71.1648 46.858 69.6875C45.9034 68.1989 45.4261 66.5455 45.4261 64.7273C45.4261 63.3864 45.6875 62.2045 46.2102 61.1818C46.7443 60.1477 47.4773 59.1989 48.4091 58.3352C49.3523 57.4602 50.4489 56.6023 51.6989 55.7614L59.0284 51.0739C59.858 50.5511 60.4432 50 60.7841 49.4205C61.1364 48.8409 61.3125 48.2614 61.3125 47.6818C61.3125 47.0568 61.0682 46.4886 60.5795 45.9773C60.1023 45.4659 59.392 45.2159 58.4489 45.2273C57.8466 45.2273 57.3239 45.3523 56.8807 45.6023C56.4375 45.8523 56.0909 46.1875 55.8409 46.608C55.6023 47.0284 55.483 47.5057 55.483 48.0398C55.483 48.733 55.6818 49.4432 56.0795 50.1705C56.4773 50.8977 57.0114 51.6705 57.6818 52.4886C58.3636 53.3068 59.1193 54.2102 59.9489 55.1989L76.6705 74H68.1818L54.1875 58.8125C53.392 57.9261 52.5568 56.9318 51.6818 55.8295C50.8068 54.7273 50.0682 53.5227 49.4659 52.2159C48.8636 50.8977 48.5625 49.4659 48.5625 47.9205C48.5625 46.1818 48.9716 44.608 49.7898 43.1989C50.608 41.7898 51.7557 40.6705 53.233 39.8409C54.7216 39 56.4545 38.5795 58.4318 38.5795C60.3409 38.5795 61.9886 38.9716 63.375 39.7557C64.7614 40.5398 65.8295 41.5795 66.5795 42.875C67.3295 44.1705 67.7045 45.5909 67.7045 47.1364C67.7045 48.7727 67.3011 50.2784 66.4943 51.6534C65.6875 53.017 64.5455 54.2273 63.0682 55.2841L55.892 60.4148C55.1307 60.9602 54.5341 61.5455 54.1023 62.1705C53.6705 62.7841 53.4545 63.4545 53.4545 64.1818C53.4545 64.9318 53.6307 65.5852 53.983 66.142C54.3466 66.6989 54.858 67.1364 55.517 67.4545C56.1761 67.7727 56.9489 67.9318 57.8352 67.9318C59.017 67.9318 60.1989 67.6534 61.3807 67.0966C62.5625 66.5284 63.642 65.733 64.6193 64.7102C65.5966 63.6761 66.3807 62.4545 66.9716 61.0455C67.5625 59.625 67.858 58.0682 67.858 56.375H74.5739C74.5739 58.4659 74.3523 60.4091 73.9091 62.2045C73.4659 63.9886 72.8011 65.5909 71.9148 67.0114C71.0398 68.4205 69.9545 69.5909 68.6591 70.5227C68.25 70.75 67.8523 70.9659 67.4659 71.1705C67.0795 71.375 66.6818 71.5909 66.2727 71.8182C64.9318 72.7841 63.4773 73.4773 61.9091 73.8977C60.3523 74.3182 58.8182 74.5284 57.3068 74.5284Z" fill="white"/>
<path d="M79.2358 74V39.0909H93.6562C96.2699 39.0909 98.5256 39.6023 100.423 40.625C102.332 41.6364 103.804 43.0511 104.838 44.8693C105.872 46.6761 106.389 48.7784 106.389 51.1761C106.389 53.5852 105.861 55.6932 104.804 57.5C103.759 59.2955 102.264 60.6875 100.321 61.6761C98.3778 62.6648 96.071 63.1591 93.4006 63.1591H84.5028V56.5114H91.8324C93.1051 56.5114 94.1676 56.2898 95.0199 55.8466C95.8835 55.4034 96.5369 54.7841 96.9801 53.9886C97.4233 53.1818 97.6449 52.2443 97.6449 51.1761C97.6449 50.0966 97.4233 49.1648 96.9801 48.3807C96.5369 47.5852 95.8835 46.9716 95.0199 46.5398C94.1563 46.108 93.0938 45.892 91.8324 45.892H87.6733V74H79.2358Z" fill="white"/>
</svg>
