<svg width="256" height="256" viewBox="0 0 256 256" fill="none" xmlns="http://www.w3.org/2000/svg">
<circle cx="128" cy="128" r="122" fill="#FFFD8E" stroke="black" stroke-width="6"/>
<path d="M66.4324 109.306C65.036 109.487 63.6252 109.556 62.2001 109.514C60.7709 109.44 59.4503 109.207 58.2381 108.815C57.0219 108.391 56.0033 107.748 55.1823 106.886C54.3612 106.024 53.8586 104.879 53.6744 103.451C53.4574 101.768 53.7262 100.475 54.4807 99.5715C55.2312 98.6358 56.5585 98.0451 58.4628 97.7995C59.5736 97.6562 60.7918 97.5958 62.1176 97.6184C63.4434 97.641 64.503 97.6011 65.2964 97.4987C66.0264 97.4046 66.5516 97.2239 66.872 96.9567C67.2201 96.6537 67.3717 96.3276 67.3266 95.9785C67.2816 95.6294 67.104 95.3781 66.7938 95.2245C66.4836 95.0709 66.0168 94.9537 65.3933 94.8728C64.7698 94.7919 63.938 94.7217 62.8978 94.6623C60.623 94.5363 58.7582 94.2122 57.3035 93.69C55.8446 93.1361 54.7262 92.3447 53.9482 91.3158C53.1978 90.251 52.7182 88.9093 52.5094 87.2908C52.2801 85.5135 52.4307 83.9292 52.9611 82.5379C53.4873 81.1149 54.2644 79.8854 55.2923 78.8494C56.3479 77.7775 57.5549 76.8797 58.9135 76.156C60.268 75.4005 61.6747 74.7996 63.1336 74.3532C64.5924 73.9069 65.9884 73.5978 67.3213 73.4259C70.3046 73.041 72.7386 73.2756 74.6233 74.1295C76.5357 74.9475 77.627 76.4039 77.8972 78.4985C78.1101 80.1489 77.7604 81.5652 76.8482 82.7477C75.9319 83.8983 74.3788 84.6149 72.1889 84.8974C71.459 84.9916 70.6139 85.0683 69.6536 85.1277C68.6933 85.187 67.7806 85.2402 66.9155 85.2873C66.0463 85.3026 65.3578 85.343 64.85 85.4085C64.0883 85.5068 63.5293 85.6757 63.1731 85.9152C62.8444 86.1189 62.7026 86.3953 62.7476 86.7444C62.7804 86.9983 62.9242 87.2379 63.1791 87.4631C63.43 87.6566 63.8553 87.8276 64.4553 87.9761C65.0869 88.1205 65.9586 88.25 67.0705 88.3647C69.85 88.6515 72.0946 89.1686 73.8043 89.916C75.5098 90.6317 76.7757 91.5654 77.6018 92.7172C78.4597 93.8648 78.991 95.2321 79.1957 96.819C79.47 98.9453 79.1085 100.896 78.1113 102.67C77.1417 104.408 75.6511 105.859 73.6393 107.022C71.6276 108.185 69.2252 108.946 66.4324 109.306ZM96.1462 70.6756C98.9708 70.3112 100.994 70.4858 102.215 71.1994C103.468 71.909 104.199 73.073 104.408 74.6916C104.645 76.5324 104.157 77.9989 102.943 79.0912C101.724 80.1518 99.7188 80.8622 96.9259 81.2225C95.9421 81.3494 94.8292 81.4768 93.5874 81.6047C92.3415 81.7009 91.028 81.7736 89.6469 81.8226L89.8358 81.4111C90.2432 82.0684 90.5022 82.8255 90.6128 83.6824C90.7233 84.5393 90.7007 85.3649 90.5451 86.1594L89.8018 86.4004C90.5584 86.0125 91.4778 85.6358 92.5599 85.2703C93.642 84.9049 94.7621 84.5829 95.92 84.3045C97.1096 84.022 98.1963 83.8173 99.1802 83.6904C101.434 83.3997 103.047 83.5303 104.022 84.0821C104.993 84.6022 105.537 85.3225 105.656 86.2429C105.787 87.2584 105.312 88.2069 104.232 89.0884C103.152 89.9698 101.184 90.5947 98.3276 90.9632C97.1534 91.1147 95.8798 91.2467 94.5069 91.3593C93.1299 91.4401 91.733 91.4912 90.3161 91.5127L91.0655 91.3192C91.4207 91.8219 91.6772 92.4341 91.8348 93.1559C92.0201 93.8418 92.0943 94.5421 92.0574 95.2567C92.0205 95.9712 91.8643 96.6367 91.5889 97.253L91.5275 96.7769C92.3199 96.4166 93.2296 96.0895 94.2564 95.7958C95.2792 95.4702 96.3398 95.1882 97.4383 94.9497C98.5368 94.7112 99.5622 94.5306 100.514 94.4078C102.768 94.1171 104.489 94.2016 105.677 94.6613C106.866 95.121 107.55 96.0491 107.73 97.4455C107.906 98.8102 107.613 100.042 106.852 101.14C106.122 102.235 105.077 103.144 103.719 103.868C102.388 104.555 100.881 105.008 99.1994 105.225C95.4861 105.704 92.4276 105.631 90.0238 105.005C87.6477 104.343 85.7875 103.18 84.4434 101.514C83.9008 100.81 83.3756 99.9903 82.8679 99.0555C82.3919 98.1167 81.9747 97.009 81.6164 95.7323C81.2541 94.4239 80.9624 92.9128 80.7413 91.199C80.3933 88.5014 80.3678 86.0525 80.6648 83.8525C80.9617 81.6524 81.5141 79.8065 82.3219 78.3149C83.5516 76.0914 85.3468 74.3756 87.7077 73.1676C90.0644 71.9279 92.8773 71.0972 96.1462 70.6756ZM119.32 64.8307C120.875 64.6301 122.413 64.5447 123.934 64.5745C125.486 64.6001 126.901 64.8208 128.181 65.2365C129.493 65.6481 130.583 66.3463 131.452 67.3312C132.317 68.2844 132.858 69.602 133.075 71.2841C133.317 73.1566 132.815 74.77 131.57 76.1244C130.325 77.4788 128.306 78.3362 125.513 78.6964C124.942 78.7701 124.333 78.8003 123.686 78.787C123.07 78.7695 122.406 78.7424 121.691 78.7055L122.886 76.7123C123.68 77.8681 124.412 79.1612 125.08 80.5914C125.78 82.0175 126.387 83.4718 126.901 84.9543C127.447 86.4326 127.887 87.8439 128.222 89.1881C128.584 90.4965 128.827 91.6268 128.949 92.5789C129.269 95.0544 129.04 97.0359 128.264 98.5234C127.516 99.9751 126.063 100.84 123.905 101.118C121.366 101.446 119.353 100.98 117.868 99.7193C116.382 98.4589 115.453 96.3848 115.081 93.4967C114.946 92.4494 114.919 91.2428 115.001 89.8771C115.079 88.4797 115.248 87.0382 115.508 85.5528C115.768 84.0673 116.098 82.6212 116.497 81.2146C116.897 79.8079 117.334 78.5738 117.81 77.5121L119.168 79.031C118.685 79.2869 118.054 79.5295 117.277 79.7588C116.5 79.9881 115.826 80.1396 115.255 80.2133C112.018 80.6308 109.671 80.4496 108.216 79.6694C106.756 78.8575 105.913 77.5788 105.688 75.8332C105.451 73.9925 105.669 72.4317 106.342 71.151C107.048 69.8662 108.056 68.8005 109.366 67.9539C110.708 67.1032 112.236 66.4383 113.949 65.9593C115.689 65.4444 117.48 65.0682 119.32 64.8307ZM151.138 98.6218C146.251 99.2523 142.585 98.5959 140.14 96.6527C137.691 94.6778 136.137 91.1355 135.478 86.0258C135.265 84.3755 135.096 82.6873 134.97 80.9612C134.84 79.2034 134.768 77.5187 134.754 75.9073C134.767 74.2601 134.823 72.8171 134.921 71.5783C135.104 69.7478 135.638 68.2593 136.523 67.1127C137.435 65.9303 138.812 65.2203 140.652 64.9829C142.334 64.7659 143.689 65.0106 144.716 65.7171C145.774 66.4194 146.408 67.5799 146.617 69.1985C146.699 69.8332 146.702 70.7362 146.627 71.9074C146.553 73.0786 146.458 74.3491 146.345 75.7189C146.263 77.0846 146.193 78.4165 146.134 79.7146C146.072 80.981 146.096 82.0427 146.206 82.8996C146.37 84.1691 146.804 85.0326 147.508 85.4903C148.244 85.9439 149.168 86.099 150.279 85.9557C151.453 85.8042 152.273 85.4081 152.739 84.7672C153.236 84.1222 153.407 83.1968 153.252 81.9907C153.149 81.1973 152.953 80.1741 152.662 78.921C152.372 77.6678 152.059 76.3692 151.724 75.025C151.385 73.649 151.079 72.3979 150.804 71.2718C150.526 70.1139 150.348 69.2334 150.27 68.6304C149.791 64.9172 151.297 62.8354 154.788 62.3851C156.502 62.164 157.878 62.4543 158.918 63.256C159.957 64.0576 160.769 65.3563 161.356 67.152C161.721 68.2341 162.086 69.5584 162.449 71.1248C162.813 72.6912 163.137 74.3272 163.421 76.0328C163.733 77.7026 163.988 79.2991 164.184 80.8225C164.667 84.5675 164.537 87.6818 163.792 90.1654C163.044 92.6173 161.628 94.5261 159.546 95.8917C157.495 97.2533 154.693 98.1633 151.138 98.6218ZM178.941 60.8182C183.13 60.2778 186.328 60.8011 188.533 62.388C190.77 63.9708 192.083 66.2698 192.471 69.2848C192.75 71.4429 192.531 73.3748 191.816 75.0803C191.132 76.7818 190.053 78.1792 188.581 79.2725C187.137 80.3301 185.431 80.9857 183.463 81.2395C182.638 81.346 181.693 81.4033 180.63 81.4114C179.594 81.3837 178.642 81.2644 177.776 81.0535L178.57 80.0799C178.906 80.6819 179.213 81.4329 179.49 82.3328C179.795 83.1969 180.059 84.1147 180.281 85.0862C180.535 86.0537 180.715 86.95 180.821 87.7752C181.108 89.9968 180.787 91.7643 179.86 93.0778C178.964 94.3871 177.453 95.179 175.326 95.4533C173.581 95.6784 172.167 95.4736 171.085 94.8389C169.999 94.1723 169.151 92.975 168.541 91.2469C167.93 89.5187 167.435 87.1789 167.054 84.2273C166.579 80.5458 166.434 77.4187 166.618 74.846C166.799 72.2415 167.191 70.1582 167.797 68.5959C168.594 66.5248 169.905 64.807 171.73 63.4424C173.586 62.0737 175.99 61.1989 178.941 60.8182ZM180.954 76.0459C182.636 75.8289 184.007 75.2003 185.066 74.1602C186.122 73.0884 186.545 71.7432 186.336 70.1246C186.185 68.9503 185.675 67.9997 184.807 67.2728C183.967 66.5101 182.658 66.2433 180.88 66.4726C179.611 66.6363 178.531 67.0176 177.64 67.6165C176.777 68.1796 176.143 68.8905 175.737 69.7495C175.36 70.5726 175.232 71.4602 175.355 72.4123C175.51 73.6183 176.054 74.5807 176.986 75.2994C177.949 76.014 179.272 76.2628 180.954 76.0459ZM126.369 146.375C123.926 146.69 121.787 146.498 119.955 145.799C118.118 145.068 116.633 143.937 115.5 142.405C114.394 140.838 113.702 138.975 113.424 136.817C113.097 134.278 113.61 132.13 114.965 130.375C116.347 128.583 118.411 127.204 121.158 126.236L121.167 128.558C119.088 127.697 117.595 126.631 116.689 125.361C115.779 124.058 115.236 122.725 115.06 121.36C114.806 119.393 115.135 117.689 116.046 116.248C116.985 114.772 118.3 113.586 119.991 112.69C121.683 111.794 123.56 111.214 125.623 110.947C129.114 110.497 131.866 110.949 133.88 112.302C135.894 113.656 137.052 115.507 137.355 117.855C137.584 119.633 137.22 121.309 136.261 122.884C135.299 124.428 133.63 125.87 131.253 127.209L131.215 126.536C132.006 126.918 132.729 127.389 133.382 127.95C134.067 128.507 134.642 129.095 135.109 129.712L134.389 129.756C135.172 128.074 136.001 126.871 136.875 126.145C137.75 125.419 138.711 124.988 139.758 124.853C141.091 124.681 142.128 124.967 142.869 125.71C143.638 126.418 144.088 127.279 144.219 128.295C144.358 129.374 144.074 130.427 143.368 131.454C142.693 132.476 141.552 133.511 139.945 134.557L139.857 133.504C142.156 134.562 143.765 135.532 144.685 136.414C145.606 137.295 146.115 138.117 146.213 138.879C146.377 140.148 146.117 141.263 145.435 142.222C144.779 143.145 143.738 143.699 142.309 143.883C140.881 144.067 139.513 143.841 138.205 143.203C136.892 142.533 135.602 141.538 134.335 140.217L135.588 139.427C134.873 141.39 133.723 142.974 132.136 144.179C130.577 145.348 128.654 146.08 126.369 146.375ZM127.165 138.287C127.927 138.189 128.485 137.891 128.84 137.393C129.227 136.891 129.376 136.292 129.286 135.593C129.188 134.832 128.847 134.069 128.265 133.305C127.714 132.537 127.037 131.915 126.233 131.438C125.461 130.957 124.71 130.763 123.98 130.857C123.441 130.927 122.98 131.228 122.597 131.762C122.214 132.295 122.082 133.022 122.2 133.942C122.319 134.863 122.634 135.677 123.145 136.385C123.652 137.062 124.267 137.58 124.991 137.938C125.71 138.265 126.435 138.381 127.165 138.287ZM126.631 123.643C127.647 123.512 128.453 123.133 129.05 122.508C129.678 121.878 129.94 121.151 129.833 120.326C129.747 119.659 129.435 119.119 128.898 118.704C128.361 118.289 127.6 118.146 126.616 118.273C125.696 118.391 124.949 118.73 124.375 119.288C123.834 119.841 123.62 120.563 123.735 121.451C123.829 122.181 124.113 122.758 124.587 123.18C125.093 123.599 125.774 123.753 126.631 123.643ZM71.0505 162.497C75.2398 161.956 78.4432 162.527 80.6606 164.209C82.9098 165.887 84.237 168.297 84.6423 171.439C84.9207 173.597 84.6544 175.535 83.8435 177.253C83.0644 178.967 81.8752 180.379 80.2761 181.489C78.7045 182.562 76.8397 183.239 74.6816 183.517C73.9199 183.615 73.1024 183.656 72.2291 183.64C71.3518 183.592 70.4324 183.468 69.4711 183.269L69.7276 181.881C70.0716 182.547 70.3905 183.393 70.6842 184.42C71.0057 185.411 71.2856 186.456 71.5241 187.554C71.7903 188.617 71.9827 189.608 72.1014 190.529C72.388 192.75 72.0675 194.518 71.1399 195.831C70.2441 197.141 68.7329 197.932 66.6066 198.207C64.988 198.415 63.6694 198.198 62.6507 197.555C61.6598 196.877 60.8592 195.673 60.2491 193.945C59.6707 192.213 59.1912 189.871 58.8105 186.919C58.2946 182.92 58.0926 179.478 58.2043 176.592C58.3477 173.702 58.7711 171.356 59.4745 169.556C60.1779 167.755 61.5135 166.227 63.4812 164.973C65.4489 163.719 67.972 162.894 71.0505 162.497ZM71.5598 176.95C73.115 176.75 74.3491 176.187 75.2624 175.263C76.2073 174.334 76.5918 173.188 76.4158 171.823C76.3011 170.934 75.9214 170.241 75.2764 169.744C74.6591 169.21 73.6681 169.032 72.3034 169.208C71.2561 169.343 70.3485 169.686 69.5806 170.236C68.8404 170.751 68.2773 171.389 67.8913 172.148C67.5371 172.904 67.4111 173.678 67.5135 174.472C67.624 175.329 68.0176 176.004 68.6943 176.497C69.3987 176.955 70.3538 177.106 71.5598 176.95ZM102.552 194.586C98.4258 195.119 95.0607 194.294 92.4563 192.114C89.8837 189.929 88.2985 186.519 87.7008 181.886C87.4879 180.236 87.3062 178.452 87.1558 176.536C87.0054 174.619 86.8969 172.778 86.8305 171.012C86.7599 169.214 86.7599 167.714 86.8306 166.511C86.9505 164.689 87.3734 163.214 88.0992 162.088C88.8528 160.926 90.0865 160.235 91.8003 160.014C93.038 159.854 94.0433 160.144 94.8163 160.883C95.6209 161.618 96.1276 162.795 96.3364 164.414C96.4224 165.08 96.4858 166.072 96.5267 167.39C96.5635 168.675 96.6009 170.09 96.6387 171.634C96.7041 173.142 96.7635 174.603 96.8167 176.015C96.8657 177.396 96.9476 178.531 97.0622 179.42C97.2997 181.261 97.7731 182.555 98.4826 183.302C99.1879 184.018 100.08 184.306 101.159 184.167C102.333 184.015 103.137 183.492 103.57 182.597C104.031 181.667 104.147 180.313 103.917 178.536C103.811 177.711 103.672 176.76 103.501 175.685C103.33 174.611 103.157 173.52 102.982 172.413C102.807 171.306 102.643 170.279 102.488 169.331C102.329 168.351 102.211 167.56 102.133 166.957C101.654 163.244 103.002 161.182 106.176 160.773C107.889 160.552 109.171 160.854 110.019 161.681C110.9 162.503 111.633 163.812 112.22 165.607C112.782 167.213 113.285 168.987 113.729 170.93C114.173 172.873 114.526 174.86 114.788 176.891C115.452 182.033 114.706 186.13 112.551 189.183C110.423 192.2 107.09 194.001 102.552 194.586ZM122.382 154.326C123.652 154.163 124.865 154.313 126.022 154.777C127.174 155.209 128.335 156.075 129.503 157.377C130.703 158.674 131.99 160.524 133.365 162.928C134.771 165.328 136.345 168.4 138.087 172.144L138.277 172.119C138.036 171.247 137.784 170.295 137.522 169.264C137.291 168.229 137.059 167.178 136.825 166.112C136.586 165.013 136.37 163.96 136.175 162.953C136.012 161.941 135.876 161.007 135.765 160.15C135.458 157.77 135.552 155.999 136.048 154.838C136.575 153.673 137.426 153.015 138.6 152.864C140.029 152.679 141.353 153.315 142.573 154.771C143.825 156.223 144.907 158.358 145.819 161.176C146.759 163.959 147.483 167.318 147.99 171.253C148.42 174.586 148.613 177.336 148.57 179.503C148.527 181.67 148.079 183.325 147.226 184.468C146.405 185.606 145.043 186.298 143.138 186.544C142.186 186.667 141.277 186.623 140.411 186.412C139.577 186.197 138.726 185.726 137.857 184.999C136.985 184.24 136.052 183.134 135.058 181.682C134.096 180.225 133.029 178.33 131.856 175.996C130.68 173.631 129.355 170.737 127.881 167.314L127.691 167.338C128.007 168.04 128.326 168.886 128.647 169.877C128.964 170.836 129.258 171.863 129.528 172.957C129.83 174.048 130.085 175.144 130.292 176.247C130.53 177.345 130.709 178.355 130.827 179.275C131.225 182.354 131.049 184.619 130.3 186.07C129.58 187.486 128.267 188.317 126.363 188.563C123.665 188.911 121.582 188.018 120.113 185.884C118.676 183.746 117.648 180.281 117.03 175.489C116.53 171.617 116.271 168.36 116.253 165.716C116.235 163.073 116.46 160.946 116.93 159.337C117.4 157.728 118.086 156.542 118.988 155.781C119.918 154.983 121.049 154.498 122.382 154.326ZM170.153 185.043C166.09 185.567 162.624 185.337 159.755 184.352C156.881 183.335 154.62 181.691 152.972 179.419C151.356 177.143 150.337 174.371 149.915 171.102C149.448 167.484 149.787 164.23 150.93 161.34C152.07 158.418 153.94 156.031 156.54 154.179C159.173 152.323 162.472 151.139 166.439 150.628C170.153 150.149 173.089 150.528 175.249 151.766C177.437 152.968 178.697 154.854 179.028 157.425C179.27 159.297 178.939 160.857 178.035 162.102C177.158 163.313 175.736 164.044 173.768 164.298C172.689 164.438 171.735 164.415 170.904 164.232C170.074 164.049 169.246 163.881 168.42 163.73C167.59 163.547 166.651 163.523 165.603 163.658C164.715 163.772 163.892 164.024 163.136 164.412C162.407 164.764 161.847 165.304 161.457 166.032C161.095 166.724 160.987 167.641 161.134 168.783C161.327 170.275 161.908 171.281 162.879 171.801C163.881 172.317 165.128 172.479 166.62 172.287C167.381 172.188 168.232 172.03 169.172 171.812C170.108 171.562 171.03 171.33 171.938 171.117C172.878 170.899 173.681 170.747 174.347 170.661C176.029 170.444 177.424 170.748 178.53 171.573C179.665 172.362 180.353 173.693 180.594 175.566C180.909 178.009 180.225 180.082 178.541 181.783C176.884 183.449 174.088 184.536 170.153 185.043ZM186.889 147.748C188.253 147.572 189.378 148.04 190.264 149.151C191.181 150.259 191.797 152.035 192.113 154.479C192.252 155.558 192.303 156.826 192.265 158.283C192.223 159.708 192.061 161.084 191.781 162.41L189.334 162.581C191.201 161.792 193.152 161.282 195.187 161.051C197.254 160.817 199.151 160.895 200.88 161.285L198.783 161.168C198.334 159.936 197.95 158.711 197.632 157.493C197.345 156.272 197.14 155.185 197.018 154.233C196.739 152.075 196.911 150.407 197.534 149.23C198.184 148.017 199.287 147.31 200.842 147.109C202.46 146.901 203.847 147.27 205.002 148.218C206.188 149.162 207.143 150.685 207.866 152.786C208.283 154.022 208.704 155.533 209.128 157.317C209.551 159.102 209.882 160.914 210.12 162.755C210.369 164.691 210.544 166.669 210.643 168.689C210.738 170.677 210.753 172.546 210.689 174.297C210.614 176.468 210.148 178.11 209.291 179.22C208.43 180.299 207.016 180.966 205.048 181.22C203.303 181.445 201.967 180.972 201.042 179.801C200.116 178.629 199.471 176.631 199.107 173.807C198.947 172.569 198.94 171.263 199.086 169.889C199.231 168.515 199.505 167.141 199.909 165.766L201.702 166.164C200.022 166.897 198.183 167.392 196.183 167.65C194.211 167.872 192.259 167.866 190.325 167.632L192.464 166.581C193.024 167.671 193.493 168.804 193.87 169.981C194.244 171.127 194.509 172.303 194.664 173.509C195.07 176.651 194.763 179.029 193.746 180.645C192.724 182.229 191.182 183.154 189.119 183.42C187.944 183.571 186.941 183.297 186.109 182.598C185.312 181.926 184.599 180.647 183.968 178.76C183.582 177.519 183.205 175.971 182.837 174.115C182.464 172.227 182.143 170.236 181.872 168.141C181.541 165.57 181.364 163.076 181.343 160.659C181.349 158.206 181.494 156.074 181.776 154.263C182.086 152.417 182.62 150.928 183.378 149.798C184.163 148.632 185.334 147.948 186.889 147.748Z" fill="black"/>
<circle cx="128" cy="128" r="126.5" stroke="white" stroke-width="3"/>
</svg>
